<svg width="898" height="818" viewBox="0 0 898 818" fill="none" xmlns="http://www.w3.org/2000/svg">
  <rect width="898" height="818" fill="#E5E5E5" />
  <g id="Frame 1" clip-path="url(#clip0_0_1)">
    <rect width="896" height="896" transform="translate(6 -26)" fill="white" />
    <g id="mockup_wizards">
      <g id="blue_star">
        <mask id="path-1-outside-1_0_1" maskUnits="userSpaceOnUse" x="-32" y="-31" width="962" height="875"
          fill="black">
          <rect fill="white" x="-32" y="-31" width="962" height="875" />
          <path
            d="M449 0L554.995 300.706H898L620.503 498.294L726.497 818L449 620.411L171.503 818L277.497 498.294L0 300.706H343.005L449 0Z" />
          <path
            d="M449 0L554.995 300.706H898L620.503 498.294L726.497 818L449 620.411L171.503 818L277.497 498.294L0 300.706H343.005L449 0Z" />
        </mask>
        <path
          d="M449 0L554.995 300.706H898L620.503 498.294L726.497 818L449 620.411L171.503 818L277.497 498.294L0 300.706H343.005L449 0Z"
          fill="#0A2F57" />
        <path
          d="M449 0L554.995 300.706H898L620.503 498.294L726.497 818L449 620.411L171.503 818L277.497 498.294L0 300.706H343.005L449 0Z"
          fill="#0A2F57" />
        <path
          d="M449 0L554.995 300.706H898L620.503 498.294L726.497 818L449 620.411L171.503 818L277.497 498.294L0 300.706H343.005L449 0Z"
          stroke="white" stroke-width="40" mask="url(#path-1-outside-1_0_1)" />
        <path
          d="M449 0L554.995 300.706H898L620.503 498.294L726.497 818L449 620.411L171.503 818L277.497 498.294L0 300.706H343.005L449 0Z"
          stroke="white" stroke-width="40" mask="url(#path-1-outside-1_0_1)" />
      </g>
      <g id="red_star">
        <mask id="path-2-inside-2_0_1" fill="white">
          <path
            d="M449.544 40.472L546.214 333.925L855.172 332.666L605.96 515.289L702.63 808.741L451.938 628.155L202.726 810.778L297.002 516.547L46.3099 335.961L355.268 334.703L449.544 40.472Z" />
        </mask>
        <path
          d="M449.544 40.472L546.214 333.925L855.172 332.666L605.96 515.289L702.63 808.741L451.938 628.155L202.726 810.778L297.002 516.547L46.3099 335.961L355.268 334.703L449.544 40.472Z"
          fill="url(#paint0_linear_0_1)" stroke="white" stroke-width="20" mask="url(#path-2-inside-2_0_1)" />
      </g>
      <text id="students_name" fill="white" xml:space="preserve" style="white-space: pre" font-family="Sansita Swashed"
        font-size="50" letter-spacing="0em">
        <tspan x="255.064" y="416">Luís Von Müller</tspan>
      </text>
      <text id="students_book" fill="white" xml:space="preserve" style="white-space: pre" font-family="Sansita Swashed"
        font-size="50" letter-spacing="0em">
        <tspan x="373.461" y="511">Teens 2</tspan>
      </text>
      <g id="wizard_by_pearson" clip-path="url(#clip1_0_1)">
        <g id="logo_wizard_by_pearson">
          <ellipse id="Ellipse 8" cx="368.5" cy="574" rx="23.5" ry="24" fill="white" />
          <g id="g12">
            <path id="path14" fill-rule="evenodd" clip-rule="evenodd"
              d="M363.167 591.262C363.167 594.359 364.265 594.649 364.265 595.041C364.265 595.339 363.922 595.195 363.681 595.138C362.618 594.89 361.45 594.519 360.805 593.624C359.332 591.577 362.015 588.465 363.275 587.103C363.972 586.35 364.573 585.777 365.389 585.133C365.6 584.966 365.643 584.864 365.911 584.802C365.904 585.117 365.804 585.128 365.519 585.507C364.386 587.018 363.167 589.292 363.167 591.262ZM367.951 550H369.561C372.015 550.082 374.471 550.541 376.832 551.394C378.476 551.988 379.321 552.448 380.806 553.272C380.988 553.373 381.073 553.447 381.255 553.554C381.435 553.661 381.546 553.736 381.701 553.84L383.409 555.058C383.538 555.157 383.679 555.266 383.816 555.382L385.709 557.146C392.754 564.189 394.546 575.208 389.931 584.436L388.883 586.314C387.794 588.042 385.801 590.493 384.148 591.82C383.593 592.266 383.082 592.673 382.503 593.1C378.989 595.692 374.351 597.253 369.787 597.479H367.506C366.525 597.429 365.557 597.314 364.615 597.129C363.499 596.911 362.553 596.702 361.575 596.39C360.367 596.004 358.674 595.421 357.923 594.373C356.663 592.615 358.081 589.847 359.074 588.511C360.178 587.022 360.378 586.894 361.719 585.548C361.98 585.287 362.195 585.132 362.45 584.877L364.77 582.991C367.562 580.908 370.299 579.159 373.431 577.57L374.345 577.082C376.252 576.128 379.293 574.793 381.335 574.258C383.662 573.648 385.676 573.333 386.822 575.72C387.311 575.606 387.343 575.731 387.76 574.464C388.372 572.607 388.179 570.771 387.33 569.056C386.908 568.203 386.406 567.708 385.772 567.08C384.94 566.256 383.401 565.59 382.156 565.392C381.111 565.225 381.119 565.346 380.543 565.359C380.257 564.82 379.956 564.262 379.522 563.82L379.287 563.567C376.988 561.27 374.286 561.449 370.976 561.829C366.98 562.288 360.195 564.24 356.439 563.126C354.984 562.695 354.571 561.924 354.571 562.433C354.571 563.557 355.311 564.184 355.608 564.628C355.39 564.646 355.165 564.712 354.938 564.75C353.51 564.989 351.707 565.091 350.466 564.404C349.423 563.827 349.328 563.065 349.328 562.068C349.328 560.346 351.053 557.93 351.966 557.025C352.16 556.833 352.228 556.699 352.421 556.505L353.942 555.161C357.946 551.935 362.9 550.171 367.951 550Z"
              fill="#ED3237" />
            <path id="path16" fill-rule="evenodd" clip-rule="evenodd"
              d="M397.552 551.097C397.552 551.849 398.438 551.358 399.772 552.291C399.974 552.432 400.223 552.627 400.358 552.802C400.733 553.29 400.932 553.509 401.184 554.17C401.669 555.439 402.945 563.241 403.299 565.281C403.4 565.858 403.535 566.562 403.631 567.144C403.816 568.266 405.127 575.814 405.317 576.49C405.474 577.045 405.95 577.427 406.636 577.427H413.159C413.309 577.427 413.279 577.48 413.439 577.037L419.429 560.717C419.488 560.562 419.47 560.588 419.56 560.483L419.831 562.711C419.941 563.467 420.028 564.199 420.109 564.932C420.276 566.434 420.485 567.911 420.669 569.432L421.52 576.138C421.572 576.498 421.673 576.819 421.889 577.049C422.074 577.248 422.429 577.427 422.792 577.427H429.437C429.658 577.427 429.648 577.171 429.843 576.736L431.535 572.638C431.775 572.067 431.982 571.583 432.215 571.001C432.656 569.895 433.115 568.879 433.556 567.771L435.574 562.9C435.825 562.339 436.004 561.824 436.248 561.258L438.965 554.71C439.189 554.143 439.418 553.644 439.645 553.074C439.956 552.291 440.801 550.922 439.858 550.796C439.648 550.768 439.239 550.792 439.008 550.792H433.887C433.867 551.03 433.557 551.709 433.461 551.95L427.425 567.188C427.284 567.54 426.529 569.333 426.511 569.564C426.304 569.413 426.427 569.581 426.38 569.268C426.355 569.106 426.353 569.056 426.331 568.891L424.098 553.082C423.907 551.782 424.036 550.794 422.917 550.789L417.731 550.792C417.704 551.12 412.127 565.49 411.856 566.251L410.477 569.808C410.29 569.009 409.852 565.822 409.702 564.914L407.777 552.638C407.633 551.783 407.691 550.792 406.758 550.792H397.979C397.773 550.792 397.552 550.9 397.552 551.097Z"
              fill="white" />
            <path id="path18" fill-rule="evenodd" clip-rule="evenodd"
              d="M542.65 571.637H540.028L540.229 569.766C540.402 568.46 541.796 557.012 541.796 556.399C543.864 556.399 546.217 556.256 548.113 556.728C551.853 557.659 552.238 561.176 551.673 564.506C551.364 566.326 550.769 567.939 549.462 569.244C548.62 570.086 547.854 570.624 546.666 571.02C545.319 571.47 544.149 571.637 542.65 571.637ZM535.273 554.754C535.273 556.164 534.096 565.271 533.936 566.644C533.824 567.62 533.726 568.544 533.592 569.529C533.493 570.251 532.73 576.433 532.807 576.721C532.925 577.159 533.231 577.427 533.749 577.427H543.076C546.708 577.427 550.53 576.236 553.249 574.189C554.043 573.591 554.733 572.911 555.378 572.172C555.885 571.59 556.028 571.35 556.465 570.699C557.206 569.592 558.379 566.955 558.379 565.847V558.777C558.379 557.828 557.369 555.947 556.793 555.181C555.206 553.069 552.9 551.949 550.283 551.328C549.018 551.028 547.206 550.792 545.637 550.792H532.59C532.203 550.792 531.691 551.345 532.675 551.621C533.261 551.786 533.575 551.853 534.011 552.175C534.417 552.474 534.651 552.719 534.888 553.189C535.113 553.636 535.273 554.108 535.273 554.754Z"
              fill="white" />
            <path id="path20" fill-rule="evenodd" clip-rule="evenodd"
              d="M519.727 564.749H513.874L514.849 556.399H519.544C521.884 556.399 523.263 557.151 523.263 559.63C523.263 562.391 522.841 564.749 519.727 564.749ZM505.156 551.219C505.156 551.749 506.271 551.454 507.366 552.422C508.016 552.996 508.326 554.052 508.326 554.937C508.326 556.041 506.295 571.963 506.126 573.764C506.036 574.708 505.827 575.722 505.827 576.635C505.827 577.098 506.327 577.427 506.802 577.427H512.35L512.568 575.634C512.654 575.005 512.709 574.433 512.777 573.831L513.203 570.174H518.263C518.514 570.174 519.785 572.817 519.912 573.036L520.701 574.502C521.083 575.275 521.842 576.855 522.569 577.206C523.216 577.519 523.766 577.427 524.665 577.427C526.189 577.427 527.713 577.427 529.237 577.427L528.137 575.296C527.946 574.969 527.768 574.628 527.571 574.277L527.002 573.201C526.893 572.98 526.83 572.893 526.718 572.692L524.725 568.955C525.14 568.736 525.462 568.587 525.86 568.321C528.907 566.286 529.968 563.137 529.968 559.447C529.968 556.966 529.458 555.056 528 553.309C527.231 552.387 525.571 551.586 524.252 551.266C523.083 550.983 521.497 550.792 520.031 550.792H505.582C505.298 550.792 505.156 550.934 505.156 551.219Z"
              fill="white" />
            <path id="path22" fill-rule="evenodd" clip-rule="evenodd"
              d="M491.256 557.679C491.449 557.821 491.549 558.598 491.609 558.85L493.694 567.492H486.988L488.303 564.48C488.412 564.219 488.481 564.091 488.582 563.844L490.991 558.329C491.075 558.139 491.215 557.854 491.256 557.679ZM482.66 577.427L484.444 573.299C484.521 573.117 484.579 572.795 484.793 572.795H494.853C495.09 572.795 495.134 573.433 495.267 573.965C496.237 577.843 495.674 577.427 499.791 577.427C500.868 577.427 501.945 577.427 503.022 577.427C502.939 577.255 502.844 576.827 502.785 576.628C501.562 572.472 500.476 567.998 499.249 563.828C498.915 562.694 498.637 561.581 498.314 560.436L495.95 551.888C495.802 551.344 495.537 550.792 494.853 550.792H484.427C483.96 550.792 483.823 551.288 484.142 551.503C484.271 551.589 484.765 551.661 485.208 551.901C485.823 552.233 486.334 552.846 486.475 553.56C486.771 555.055 485.651 556.467 485.089 557.854L484.143 559.833C483.222 561.672 482.233 563.974 481.318 565.786L477.559 573.669C477.338 574.107 476.249 576.363 476.178 576.683C476.089 577.091 476.363 577.39 476.807 577.427C477.5 577.486 481.592 577.427 482.66 577.427Z"
              fill="white" />
            <path id="path24" fill-rule="evenodd" clip-rule="evenodd"
              d="M467.052 556.399L465.453 558.214C465.352 558.316 465.274 558.379 465.181 558.49L464.083 559.709C463.961 559.855 463.95 559.899 463.807 560.042L459.142 565.191C459.012 565.33 458.998 565.388 458.869 565.527L458.316 566.133C457.681 566.893 455.399 569.279 455.042 569.747C454.695 570.203 453.235 571.691 452.847 572.185C452.547 572.565 452.595 572.406 452.532 573.028L452.157 576.129C452.061 576.792 452.299 577.427 453.092 577.427H473.515L473.785 574.893C473.88 574.192 474.064 572.839 474.064 572.185C474.064 571.624 473.54 571.634 472.967 571.637L461.443 571.637L464.66 568.087C464.782 567.956 464.789 567.913 464.904 567.782L471.146 560.919C471.475 560.507 471.857 560.129 472.22 559.737L473.287 558.549C473.801 558.042 474.907 556.693 475.449 556.139C475.934 555.644 475.813 555.64 475.953 554.388L476.299 551.362C476.26 551.05 476.032 550.792 475.71 550.792H455.164C455.164 551.151 455.079 551.506 455.048 551.834L454.681 554.943C454.603 555.723 454.671 556.203 455.44 556.367C455.923 556.47 466.023 556.399 467.052 556.399Z"
              fill="white" />
            <path id="path26" fill-rule="evenodd" clip-rule="evenodd"
              d="M441.813 577.427H447.421C447.421 576.88 448.088 571.534 448.164 570.917L449.323 561.226C449.455 560.161 449.557 559.067 449.711 557.957C449.865 556.854 449.982 555.78 450.104 554.693C450.181 554.015 450.47 551.916 450.47 551.402C450.47 551.06 450.203 550.792 449.86 550.792H443.886C443.886 551.074 443.839 551.327 443.798 551.619C443.755 551.931 443.732 552.196 443.697 552.494L441.656 569.59C441.574 570.186 441.496 570.776 441.449 571.334L440.835 576.453C440.83 577.027 441.246 577.427 441.813 577.427Z"
              fill="white" />
            <path id="path28" fill-rule="evenodd" clip-rule="evenodd"
              d="M353.84 590.409C353.84 589.977 353.945 589.386 354.027 589.011C354.291 587.807 354.936 586.735 355.608 585.777C357.337 583.313 360.882 580.825 363.696 579.418C364.072 579.23 364.415 579.035 364.796 578.872C365.191 578.703 365.51 578.55 365.902 578.393C366.267 578.246 366.725 578.096 367.069 577.915C366.95 577.688 367.06 577.683 366.815 577.714C366.707 577.727 366.513 577.785 366.364 577.819C362.94 578.583 361.186 579.178 358.1 580.589C357.006 581.088 355.566 582.009 354.652 582.749C353.867 583.383 353.059 584.133 352.498 584.984C352.197 585.442 351.933 585.86 351.714 586.394C350.979 588.191 351.422 589.977 352.758 591.308C352.921 591.471 353.752 592.31 353.951 592.26C354.244 592.186 353.84 591.269 353.84 590.409Z"
              fill="#ED3237" />
            <path id="path30" fill-rule="evenodd" clip-rule="evenodd"
              d="M405.294 592.055C403.78 592.055 403.344 591.081 403.344 589.434C403.344 587.659 403.756 586.813 405.294 586.813C407.342 586.813 407.194 590.123 406.638 591.204C406.404 591.659 405.981 592.055 405.294 592.055ZM401.698 593.274H402.978C403.007 592.923 403.192 592.71 403.222 592.359C403.466 592.425 403.405 592.466 403.556 592.635C403.636 592.725 403.813 592.866 403.917 592.944C405.292 593.986 408.708 593.697 408.708 589.434C408.708 586.817 407.336 585.008 404.903 585.507C404.564 585.576 404.195 585.739 403.971 585.916C403.423 586.347 403.531 586.403 403.283 586.569C403.283 586.183 403.344 586.06 403.344 585.655V582.425H401.698V593.274Z"
              fill="white" />
            <path id="path32" fill-rule="evenodd" clip-rule="evenodd"
              d="M425.047 588.032H423.706V584.558C425.004 584.558 427.059 584.262 427.059 586.204C427.059 587.464 426.211 588.032 425.047 588.032ZM422.06 593.274H423.706V589.495C425.458 589.495 427.546 589.544 428.442 587.769C428.711 587.237 428.727 587.076 428.783 586.342C428.818 585.896 428.742 585.315 428.567 584.879C428.02 583.514 426.561 583.095 424.986 583.095H422.06V593.274Z"
              fill="white" />
            <path id="path34" fill-rule="evenodd" clip-rule="evenodd"
              d="M412.427 593.274C412.427 593.497 411.981 594.487 411.855 594.652C411.105 595.636 410.413 595.285 409.684 595.285C409.684 596.837 409.428 596.687 411.025 596.687C412.19 596.687 413.003 595.788 413.499 594.894C413.612 594.691 413.725 594.398 413.807 594.165C413.91 593.875 413.999 593.656 414.108 593.37L415.864 588.725C416.058 588.182 416.257 587.686 416.444 587.172L417.061 585.594H415.232C415.034 586.441 413.819 589.564 413.451 590.883C413.417 591.004 413.378 591.119 413.341 591.262L413.22 591.689C413.201 590.821 411.85 587.508 411.475 586.363C411.378 586.067 411.274 585.875 411.208 585.594H409.379C409.521 585.891 409.638 586.211 409.771 586.543C410.097 587.358 412.427 593.077 412.427 593.274Z"
              fill="white" />
            <path id="path36" fill-rule="evenodd" clip-rule="evenodd"
              d="M461.078 589.556C461.078 588.82 461.133 588.1 461.49 587.53C462.185 586.423 464.919 586.31 464.919 589.068C464.919 590.568 464.846 592.055 462.907 592.055C461.596 592.055 461.078 590.887 461.078 589.556ZM459.371 589.19C459.371 591.05 459.899 592.429 461.504 593.152C462.796 593.734 464.605 593.471 465.728 592.315C466.63 591.387 466.743 589.924 466.617 588.65C466.499 587.452 465.833 586.352 464.716 585.796C463.826 585.353 462.527 585.315 461.573 585.662C461.098 585.835 460.763 586.061 460.422 586.401C459.705 587.118 459.371 588.096 459.371 589.19Z"
              fill="white" />
            <path id="path38" fill-rule="evenodd" clip-rule="evenodd"
              d="M441.142 592.116C440.669 592.116 440.278 592.175 439.965 591.829C439.329 591.126 439.65 589.688 441.689 589.676C442.168 589.673 442.387 589.617 442.849 589.617C442.849 590.389 442.919 591.024 442.379 591.585C442.11 591.864 441.665 592.116 441.142 592.116ZM438.765 586.082C438.87 586.535 439.144 586.833 439.252 587.301C440.362 587.042 439.818 586.752 441.752 586.752C442.927 586.752 442.849 587.951 442.849 588.581C440.563 588.581 437.972 588.601 437.972 591.202C437.972 593.583 440.707 593.721 441.836 593.175C442.083 593.056 442.249 592.923 442.459 592.761C442.893 592.426 442.715 592.322 443.032 592.237C443.066 592.645 443.267 592.888 443.276 593.274H444.495V587.788C444.495 587.005 444.128 586.342 443.661 586.001C442.532 585.177 440.627 585.344 439.417 585.819C439.199 585.905 438.961 586.036 438.765 586.082Z"
              fill="white" />
            <path id="path40" fill-rule="evenodd" clip-rule="evenodd"
              d="M433.4 586.691C434.493 586.691 435.045 587.492 435.045 588.581H431.632C431.632 587.518 432.34 586.691 433.4 586.691ZM429.864 589.312C429.864 590.9 430.35 592.446 431.839 593.066C432.98 593.542 434.656 593.518 435.801 593.115C436.035 593.032 436.113 592.957 436.326 592.908V591.567C436.151 591.582 433.297 592.85 432.143 591.482C431.823 591.103 431.571 590.466 431.571 589.8H436.692C436.692 588.389 436.741 587.319 435.732 586.31C434.118 584.696 429.864 585.061 429.864 589.312Z"
              fill="white" />
            <path id="path42" fill-rule="evenodd" clip-rule="evenodd"
              d="M470.04 586.569C469.758 585.362 470.119 585.594 468.516 585.594V593.274H470.162V589.434C470.162 588.197 470.47 586.813 471.93 586.813C472.481 586.813 473.017 586.793 473.371 587.384C473.568 587.714 473.637 588.259 473.637 588.763V593.274H475.283V587.971C475.283 585.447 472.637 584.98 471.054 585.755C470.506 586.023 470.437 586.304 470.04 586.569Z"
              fill="white" />
            <path id="path44" fill-rule="evenodd" clip-rule="evenodd"
              d="M452.421 587.301C452.421 587.956 452.479 588.529 452.986 588.99C453.845 589.773 455.383 590.012 456.153 590.64C456.604 591.007 456.661 592.116 455.286 592.116C454.212 592.116 453.389 592.019 452.421 591.506V592.969C452.606 593.012 452.601 593.037 452.768 593.109C453.919 593.602 458.09 593.964 458.09 591.079C458.09 589.847 457.285 589.367 456.424 588.966C455.557 588.562 454.067 588.266 454.067 587.422C454.067 586.452 455.951 586.751 456.514 586.927C456.804 587.018 457.161 587.179 457.42 587.24L457.968 585.96C457.735 585.905 457.64 585.846 457.428 585.769C456.219 585.327 454.546 585.257 453.415 585.857C452.877 586.142 452.421 586.722 452.421 587.301Z"
              fill="white" />
            <path id="path46" fill-rule="evenodd" clip-rule="evenodd"
              d="M345 573.526C345 576.059 345.209 577.85 345.88 580.204C346.046 580.788 346.278 581.343 346.402 581.876H346.646C346.692 579.81 348.437 577.26 349.973 576.06C351.028 575.236 351.386 574.895 352.722 574.237C352.994 574.104 353.203 574.094 353.23 573.77C352.127 573.77 347.677 575.741 345.626 573.875C345.321 573.597 345.406 573.372 345.061 573.343C345.02 573.416 345.001 573.409 345 573.516V573.521V573.526Z"
              fill="#ED3237" />
            <path id="path48" fill-rule="evenodd" clip-rule="evenodd"
              d="M448.275 586.935C448.265 586.497 448.092 586.034 448.092 585.594H446.751V593.274H448.458V588.885C448.458 588.402 448.795 587.852 449.05 587.588C449.624 586.993 450.144 586.996 450.897 586.996C451.231 586.996 451.316 587.204 451.382 586.876C451.415 586.708 451.528 585.604 451.453 585.53C451.223 585.304 449.955 585.391 449.249 585.897C448.71 586.283 448.495 586.788 448.275 586.935Z"
              fill="white" />
            <path id="path50" fill-rule="evenodd" clip-rule="evenodd"
              d="M371.337 567.309C371.683 567.55 371.561 567.418 372.259 567.134C372.532 567.024 372.779 566.927 373.043 566.821C374.092 566.399 373.704 566.896 374.186 567.448C375.038 568.424 376.412 567.676 376.519 566.395C377.461 566.395 377.09 566.646 377.555 566.334C377.291 565.201 375.66 564.806 374.271 565.367C373.542 565.662 372.933 566.014 372.322 566.465L371.626 566.989C371.441 567.14 371.443 567.109 371.337 567.309Z"
              fill="#ED3237" />
          </g>
        </g>
      </g>
      <line id="divider" x1="439" y1="446" x2="464" y2="446" stroke="white" stroke-width="2" />
    </g>
  </g>
  <defs>
    <linearGradient id="paint0_linear_0_1" x1="449.544" y1="40.472" x2="451" y2="1360.5" gradientUnits="userSpaceOnUse">
      <stop stop-color="#FF0023" />
      <stop offset="0.427083" stop-color="#64131E" />
      <stop offset="0.692708" stop-color="#0E0405" />
    </linearGradient>
    <clipPath id="clip0_0_1">
      <rect width="896" height="896" fill="white" transform="translate(6 -26)" />
    </clipPath>
    <clipPath id="clip1_0_1">
      <rect width="214" height="48" fill="white" transform="translate(345 550)" />
    </clipPath>
  </defs>
</svg>