<svg width="898" height="818" viewBox="0 0 898 818" fill="none" xmlns="http://www.w3.org/2000/svg">
  <rect width="898" height="818" fill="#E5E5E5" />
  <g id="Frame 1" clip-path="url(#clip0_0_1)">
    <rect width="896" height="896" transform="translate(5 -26)" fill="white" />
    <g id="mockup_wizards">
      <g id="blue_star">
        <path
          d="M449 0L554.995 300.706H898L620.503 498.294L726.497 818L449 620.411L171.503 818L277.497 498.294L0 300.706H343.005L449 0Z"
          fill="#0A2F57" />
        <path
          d="M449 0L554.995 300.706H898L620.503 498.294L726.497 818L449 620.411L171.503 818L277.497 498.294L0 300.706H343.005L449 0Z"
          fill="#0A2F57" />
        <path
          d="M449 0L554.995 300.706H898L620.503 498.294L726.497 818L449 620.411L171.503 818L277.497 498.294L0 300.706H343.005L449 0Z"
          stroke="white" stroke-width="20" />
      </g>
      <g id="red_star">
        <mask id="path-3-inside-1_0_1" fill="white">
          <path
            d="M449.431 40.472L546.101 333.925L855.059 332.666L605.847 515.289L702.517 808.741L451.825 628.155L202.613 810.778L296.889 516.547L46.197 335.961L355.155 334.703L449.431 40.472Z" />
        </mask>
        <path
          d="M449.431 40.472L546.101 333.925L855.059 332.666L605.847 515.289L702.517 808.741L451.825 628.155L202.613 810.778L296.889 516.547L46.197 335.961L355.155 334.703L449.431 40.472Z"
          fill="url(#paint0_linear_0_1)" stroke="white" stroke-width="20" mask="url(#path-3-inside-1_0_1)" />
      </g>
      <g x="253" y="406" width="393" height="60" id="NomeAluno">
        <text x="50%" y="50%" dominant-baseline="middle" text-anchor="middle" id="students_name" fill="white"
          font-family="Sansita Swashed" font-size="50" letter-spacing="0em">
          <tspan>Outra Aleatória</tspan>
        </text>
      </g>
      <g id="LivroAluno">
        <rect x="373.461" y="511" width="176" height="60" />
        <text x="50%" y="511" dominant-baseline="middle" text-anchor="middle" id="students_book" fill="white"
          font-family="Sansita Swashed" font-size="50" letter-spacing="0em">
          Teens 4
        </text>
      </g>
      <g id="wizard_by_pearson" clip-path="url(#clip1_0_1)">
        <g id="logo_wizard_by_pearson">
          <ellipse id="Ellipse 8" cx="370.5" cy="574" rx="23.5" ry="24" fill="white" />
          <g id="g12">
            <path id="path14" fill-rule="evenodd" clip-rule="evenodd"
              d="M365.167 591.262C365.167 594.359 366.265 594.649 366.265 595.041C366.265 595.339 365.922 595.195 365.681 595.138C364.618 594.89 363.45 594.519 362.805 593.624C361.332 591.577 364.015 588.465 365.275 587.103C365.972 586.35 366.573 585.777 367.389 585.133C367.6 584.966 367.643 584.864 367.911 584.802C367.904 585.117 367.804 585.128 367.519 585.507C366.386 587.018 365.167 589.292 365.167 591.262ZM369.951 550H371.561C374.015 550.082 376.471 550.541 378.832 551.394C380.476 551.988 381.321 552.448 382.806 553.272C382.988 553.373 383.073 553.447 383.255 553.554C383.435 553.661 383.546 553.736 383.701 553.84L385.409 555.058C385.538 555.157 385.679 555.266 385.816 555.382L387.709 557.146C394.754 564.189 396.546 575.208 391.931 584.436L390.883 586.314C389.794 588.042 387.801 590.493 386.148 591.82C385.593 592.266 385.082 592.673 384.503 593.1C380.989 595.692 376.351 597.253 371.787 597.479H369.506C368.525 597.429 367.557 597.314 366.615 597.129C365.499 596.911 364.553 596.702 363.575 596.39C362.367 596.004 360.674 595.421 359.923 594.373C358.663 592.615 360.081 589.847 361.074 588.511C362.178 587.022 362.378 586.894 363.719 585.548C363.98 585.287 364.195 585.132 364.45 584.877L366.77 582.991C369.562 580.908 372.299 579.159 375.431 577.57L376.345 577.082C378.252 576.128 381.293 574.793 383.335 574.258C385.662 573.648 387.676 573.333 388.822 575.72C389.311 575.606 389.343 575.731 389.76 574.464C390.372 572.607 390.179 570.771 389.33 569.056C388.908 568.203 388.406 567.708 387.772 567.08C386.94 566.256 385.401 565.59 384.156 565.392C383.111 565.225 383.119 565.346 382.543 565.359C382.257 564.82 381.956 564.262 381.522 563.82L381.287 563.567C378.988 561.27 376.286 561.449 372.976 561.829C368.98 562.288 362.195 564.24 358.439 563.126C356.984 562.695 356.571 561.924 356.571 562.433C356.571 563.557 357.311 564.184 357.608 564.628C357.39 564.646 357.165 564.712 356.938 564.75C355.51 564.989 353.707 565.091 352.466 564.404C351.423 563.827 351.328 563.065 351.328 562.068C351.328 560.346 353.053 557.93 353.966 557.025C354.16 556.833 354.228 556.699 354.421 556.505L355.942 555.161C359.946 551.935 364.9 550.171 369.951 550Z"
              fill="#ED3237" />
            <path id="path16" fill-rule="evenodd" clip-rule="evenodd"
              d="M399.552 551.097C399.552 551.849 400.438 551.358 401.772 552.291C401.974 552.432 402.223 552.627 402.358 552.802C402.733 553.29 402.932 553.509 403.184 554.17C403.669 555.439 404.945 563.241 405.299 565.281C405.4 565.858 405.535 566.562 405.631 567.144C405.816 568.266 407.127 575.814 407.317 576.49C407.474 577.045 407.95 577.427 408.636 577.427H415.159C415.309 577.427 415.279 577.48 415.439 577.037L421.429 560.717C421.488 560.562 421.47 560.588 421.56 560.483L421.831 562.711C421.941 563.467 422.028 564.199 422.109 564.932C422.276 566.434 422.485 567.911 422.669 569.432L423.52 576.138C423.572 576.498 423.673 576.819 423.889 577.049C424.074 577.248 424.429 577.427 424.792 577.427H431.437C431.658 577.427 431.648 577.171 431.843 576.736L433.535 572.638C433.775 572.067 433.982 571.583 434.215 571.001C434.656 569.895 435.115 568.879 435.556 567.771L437.574 562.9C437.825 562.339 438.004 561.824 438.248 561.258L440.965 554.71C441.189 554.143 441.418 553.644 441.645 553.074C441.956 552.291 442.801 550.922 441.858 550.796C441.648 550.768 441.239 550.792 441.008 550.792H435.887C435.867 551.03 435.557 551.709 435.461 551.95L429.425 567.188C429.284 567.54 428.529 569.333 428.511 569.564C428.304 569.413 428.427 569.581 428.38 569.268C428.355 569.106 428.353 569.056 428.331 568.891L426.098 553.082C425.907 551.782 426.036 550.794 424.917 550.789L419.731 550.792C419.704 551.12 414.127 565.49 413.856 566.251L412.477 569.808C412.29 569.009 411.852 565.822 411.702 564.914L409.777 552.638C409.633 551.783 409.691 550.792 408.758 550.792H399.979C399.773 550.792 399.552 550.9 399.552 551.097"
              fill="white" />
            <path id="path18" fill-rule="evenodd" clip-rule="evenodd"
              d="M544.65 571.637H542.028L542.229 569.766C542.402 568.46 543.796 557.012 543.796 556.399C545.864 556.399 548.217 556.256 550.113 556.728C553.853 557.659 554.238 561.176 553.673 564.506C553.364 566.326 552.769 567.939 551.462 569.244C550.62 570.086 549.854 570.624 548.666 571.02C547.319 571.47 546.149 571.637 544.65 571.637V571.637ZM537.273 554.754C537.273 556.164 536.096 565.271 535.936 566.644C535.824 567.62 535.726 568.544 535.592 569.529C535.493 570.251 534.73 576.433 534.807 576.721C534.925 577.159 535.231 577.427 535.749 577.427H545.076C548.708 577.427 552.53 576.236 555.249 574.189C556.043 573.591 556.733 572.911 557.378 572.172C557.885 571.59 558.028 571.35 558.465 570.699C559.206 569.592 560.379 566.955 560.379 565.847V558.777C560.379 557.828 559.369 555.947 558.793 555.181C557.206 553.069 554.9 551.949 552.283 551.328C551.018 551.028 549.206 550.792 547.637 550.792H534.59C534.203 550.792 533.691 551.345 534.675 551.621C535.261 551.786 535.575 551.853 536.011 552.175C536.417 552.474 536.651 552.719 536.888 553.189C537.113 553.636 537.273 554.108 537.273 554.754"
              fill="white" />
            <path id="path20" fill-rule="evenodd" clip-rule="evenodd"
              d="M521.727 564.749H515.874L516.849 556.399H521.544C523.884 556.399 525.263 557.151 525.263 559.63C525.263 562.391 524.841 564.749 521.727 564.749ZM507.156 551.219C507.156 551.749 508.271 551.454 509.366 552.422C510.016 552.996 510.326 554.052 510.326 554.937C510.326 556.041 508.295 571.963 508.126 573.764C508.036 574.708 507.827 575.722 507.827 576.635C507.827 577.098 508.327 577.427 508.802 577.427H514.35L514.568 575.634C514.654 575.005 514.709 574.433 514.777 573.831L515.203 570.174H520.263C520.514 570.174 521.785 572.817 521.912 573.036L522.701 574.502C523.083 575.275 523.842 576.855 524.569 577.206C525.216 577.519 525.766 577.427 526.665 577.427C528.189 577.427 529.713 577.427 531.237 577.427L530.137 575.296C529.946 574.969 529.768 574.628 529.571 574.277L529.002 573.201C528.893 572.98 528.83 572.893 528.718 572.692L526.725 568.955C527.14 568.736 527.462 568.587 527.86 568.321C530.907 566.286 531.968 563.137 531.968 559.447C531.968 556.966 531.458 555.056 530 553.309C529.231 552.387 527.571 551.586 526.252 551.266C525.083 550.983 523.497 550.792 522.031 550.792H507.582C507.298 550.792 507.156 550.934 507.156 551.219"
              fill="white" />
            <path id="path22" fill-rule="evenodd" clip-rule="evenodd"
              d="M493.256 557.679C493.449 557.821 493.549 558.598 493.609 558.85L495.694 567.492H488.988L490.303 564.48C490.412 564.219 490.481 564.091 490.582 563.844L492.991 558.329C493.075 558.139 493.215 557.854 493.256 557.679V557.679ZM484.66 577.427L486.444 573.299C486.521 573.117 486.579 572.795 486.793 572.795H496.853C497.09 572.795 497.134 573.433 497.267 573.965C498.237 577.843 497.674 577.427 501.791 577.427C502.868 577.427 503.945 577.427 505.022 577.427C504.939 577.255 504.844 576.827 504.785 576.628C503.562 572.472 502.476 567.998 501.249 563.828C500.915 562.694 500.637 561.581 500.314 560.436L497.95 551.888C497.802 551.344 497.537 550.792 496.853 550.792H486.427C485.96 550.792 485.823 551.288 486.142 551.503C486.271 551.589 486.765 551.661 487.208 551.901C487.823 552.233 488.334 552.846 488.475 553.56C488.771 555.055 487.651 556.467 487.089 557.854L486.143 559.833C485.222 561.672 484.233 563.974 483.318 565.786L479.559 573.669C479.338 574.107 478.249 576.363 478.178 576.683C478.089 577.091 478.363 577.39 478.807 577.427C479.5 577.486 483.592 577.427 484.66 577.427"
              fill="white" />
            <path id="path24" fill-rule="evenodd" clip-rule="evenodd"
              d="M469.052 556.399L467.453 558.214C467.352 558.316 467.274 558.379 467.181 558.49L466.083 559.709C465.961 559.855 465.95 559.899 465.807 560.042L461.142 565.191C461.012 565.33 460.998 565.388 460.869 565.527L460.316 566.133C459.681 566.893 457.399 569.279 457.042 569.747C456.695 570.203 455.235 571.691 454.847 572.185C454.547 572.565 454.595 572.406 454.532 573.028L454.157 576.129C454.061 576.792 454.299 577.427 455.092 577.427H475.515L475.785 574.893C475.88 574.192 476.064 572.839 476.064 572.185C476.064 571.624 475.54 571.634 474.967 571.637L463.443 571.637L466.66 568.087C466.782 567.956 466.789 567.913 466.904 567.782L473.146 560.919C473.475 560.507 473.857 560.129 474.22 559.737L475.287 558.549C475.801 558.042 476.907 556.693 477.449 556.139C477.934 555.644 477.813 555.64 477.953 554.388L478.299 551.362C478.26 551.05 478.032 550.792 477.71 550.792H457.164C457.164 551.151 457.079 551.506 457.048 551.834L456.681 554.943C456.603 555.723 456.671 556.203 457.44 556.367C457.923 556.47 468.023 556.399 469.052 556.399Z"
              fill="white" />
            <path id="path26" fill-rule="evenodd" clip-rule="evenodd"
              d="M443.813 577.427H449.421C449.421 576.88 450.088 571.534 450.164 570.917L451.323 561.226C451.455 560.161 451.557 559.067 451.711 557.957C451.865 556.854 451.982 555.78 452.104 554.693C452.181 554.015 452.47 551.916 452.47 551.402C452.47 551.06 452.203 550.792 451.86 550.792H445.886C445.886 551.074 445.839 551.327 445.798 551.619C445.755 551.931 445.732 552.196 445.697 552.494L443.656 569.59C443.574 570.186 443.496 570.776 443.449 571.334L442.835 576.453C442.83 577.027 443.246 577.427 443.813 577.427"
              fill="white" />
            <path id="path28" fill-rule="evenodd" clip-rule="evenodd"
              d="M355.84 590.409C355.84 589.977 355.945 589.386 356.027 589.011C356.291 587.807 356.936 586.735 357.608 585.777C359.337 583.313 362.882 580.825 365.696 579.418C366.072 579.23 366.415 579.035 366.796 578.872C367.191 578.703 367.51 578.55 367.902 578.393C368.267 578.246 368.725 578.096 369.069 577.915C368.95 577.688 369.06 577.683 368.815 577.714C368.707 577.727 368.513 577.785 368.364 577.819C364.94 578.583 363.186 579.178 360.1 580.589C359.006 581.088 357.566 582.009 356.652 582.749C355.867 583.383 355.059 584.133 354.498 584.984C354.197 585.442 353.933 585.86 353.714 586.394C352.979 588.191 353.422 589.977 354.758 591.308C354.921 591.471 355.752 592.31 355.951 592.26C356.244 592.186 355.84 591.269 355.84 590.409"
              fill="#ED3237" />
            <path id="path30" fill-rule="evenodd" clip-rule="evenodd"
              d="M407.294 592.055C405.78 592.055 405.344 591.081 405.344 589.434C405.344 587.659 405.756 586.813 407.294 586.813C409.342 586.813 409.194 590.123 408.638 591.204C408.404 591.659 407.981 592.055 407.294 592.055ZM403.698 593.274H404.978C405.007 592.923 405.192 592.71 405.222 592.359C405.466 592.425 405.405 592.466 405.556 592.635C405.636 592.725 405.813 592.866 405.917 592.944C407.292 593.986 410.708 593.697 410.708 589.434C410.708 586.817 409.336 585.008 406.903 585.507C406.564 585.576 406.195 585.739 405.971 585.916C405.423 586.347 405.531 586.403 405.283 586.569C405.283 586.183 405.344 586.06 405.344 585.655V582.425H403.698V593.274"
              fill="white" />
            <path id="path32" fill-rule="evenodd" clip-rule="evenodd"
              d="M427.047 588.032H425.706V584.558C427.004 584.558 429.059 584.262 429.059 586.204C429.059 587.464 428.211 588.032 427.047 588.032ZM424.06 593.274H425.706V589.495C427.458 589.495 429.546 589.544 430.442 587.769C430.711 587.237 430.727 587.076 430.783 586.342C430.818 585.896 430.742 585.315 430.567 584.879C430.02 583.514 428.561 583.095 426.986 583.095H424.06V593.274Z"
              fill="white" />
            <path id="path34" fill-rule="evenodd" clip-rule="evenodd"
              d="M414.427 593.274C414.427 593.497 413.981 594.487 413.855 594.652C413.105 595.636 412.413 595.285 411.684 595.285C411.684 596.837 411.428 596.687 413.025 596.687C414.19 596.687 415.003 595.788 415.499 594.894C415.612 594.691 415.725 594.398 415.807 594.165C415.91 593.875 415.999 593.656 416.108 593.37L417.864 588.725C418.058 588.182 418.257 587.686 418.444 587.172L419.061 585.594H417.232C417.034 586.441 415.819 589.564 415.451 590.883C415.417 591.004 415.378 591.119 415.341 591.262L415.22 591.689C415.201 590.821 413.85 587.508 413.475 586.363C413.378 586.067 413.274 585.875 413.208 585.594H411.379C411.521 585.891 411.638 586.211 411.771 586.543C412.097 587.358 414.427 593.077 414.427 593.274"
              fill="white" />
            <path id="path36" fill-rule="evenodd" clip-rule="evenodd"
              d="M463.078 589.556C463.078 588.82 463.133 588.1 463.49 587.53C464.185 586.423 466.919 586.31 466.919 589.068C466.919 590.568 466.846 592.055 464.907 592.055C463.596 592.055 463.078 590.887 463.078 589.556ZM461.371 589.19C461.371 591.05 461.899 592.429 463.504 593.152C464.796 593.734 466.605 593.471 467.728 592.315C468.63 591.387 468.743 589.924 468.617 588.65C468.499 587.452 467.833 586.352 466.716 585.796C465.826 585.353 464.527 585.315 463.573 585.662C463.098 585.835 462.763 586.061 462.422 586.401C461.705 587.118 461.371 588.096 461.371 589.19"
              fill="white" />
            <path id="path38" fill-rule="evenodd" clip-rule="evenodd"
              d="M443.142 592.116C442.669 592.116 442.278 592.175 441.965 591.829C441.329 591.126 441.65 589.688 443.689 589.676C444.168 589.673 444.387 589.617 444.849 589.617C444.849 590.389 444.919 591.024 444.379 591.585C444.11 591.864 443.665 592.116 443.142 592.116ZM440.765 586.082C440.87 586.535 441.144 586.833 441.252 587.301C442.362 587.042 441.818 586.752 443.752 586.752C444.927 586.752 444.849 587.951 444.849 588.581C442.563 588.581 439.972 588.601 439.972 591.202C439.972 593.583 442.707 593.721 443.836 593.175C444.083 593.056 444.249 592.923 444.459 592.761C444.893 592.426 444.715 592.322 445.032 592.237C445.066 592.645 445.267 592.888 445.276 593.274H446.495V587.788C446.495 587.005 446.128 586.342 445.661 586.001C444.532 585.177 442.627 585.344 441.417 585.819C441.199 585.905 440.961 586.036 440.765 586.082"
              fill="white" />
            <path id="path40" fill-rule="evenodd" clip-rule="evenodd"
              d="M435.4 586.691C436.493 586.691 437.045 587.492 437.045 588.581H433.632C433.632 587.518 434.34 586.691 435.4 586.691V586.691ZM431.864 589.312C431.864 590.9 432.35 592.446 433.839 593.066C434.98 593.542 436.656 593.518 437.801 593.115C438.035 593.032 438.113 592.957 438.326 592.908V591.567C438.151 591.582 435.297 592.85 434.143 591.482C433.823 591.103 433.571 590.466 433.571 589.8H438.692C438.692 588.389 438.741 587.319 437.732 586.31C436.118 584.696 431.864 585.061 431.864 589.312"
              fill="white" />
            <path id="path42" fill-rule="evenodd" clip-rule="evenodd"
              d="M472.04 586.569C471.758 585.362 472.119 585.594 470.516 585.594V593.274H472.162V589.434C472.162 588.197 472.47 586.813 473.93 586.813C474.481 586.813 475.017 586.793 475.371 587.384C475.568 587.714 475.637 588.259 475.637 588.763V593.274H477.283V587.971C477.283 585.447 474.637 584.98 473.054 585.755C472.506 586.023 472.437 586.304 472.04 586.569"
              fill="white" />
            <path id="path44" fill-rule="evenodd" clip-rule="evenodd"
              d="M454.421 587.301C454.421 587.956 454.479 588.529 454.986 588.99C455.845 589.773 457.383 590.012 458.153 590.64C458.604 591.007 458.661 592.116 457.286 592.116C456.212 592.116 455.389 592.019 454.421 591.506V592.969C454.606 593.012 454.601 593.037 454.768 593.109C455.919 593.602 460.09 593.964 460.09 591.079C460.09 589.847 459.285 589.367 458.424 588.966C457.557 588.562 456.067 588.266 456.067 587.422C456.067 586.452 457.951 586.751 458.514 586.927C458.804 587.018 459.161 587.179 459.42 587.24L459.968 585.96C459.735 585.905 459.64 585.846 459.428 585.769C458.219 585.327 456.546 585.257 455.415 585.857C454.877 586.142 454.421 586.722 454.421 587.301"
              fill="white" />
            <path id="path46" fill-rule="evenodd" clip-rule="evenodd"
              d="M347 573.526C347 576.059 347.209 577.85 347.88 580.204C348.046 580.788 348.278 581.343 348.402 581.876H348.646C348.692 579.81 350.437 577.26 351.973 576.06C353.028 575.236 353.386 574.895 354.722 574.237C354.994 574.104 355.203 574.094 355.23 573.77C354.127 573.77 349.677 575.741 347.626 573.875C347.321 573.597 347.406 573.372 347.061 573.343C347.02 573.416 347.001 573.409 347 573.516V573.521V573.526"
              fill="#ED3237" />
            <path id="path48" fill-rule="evenodd" clip-rule="evenodd"
              d="M450.275 586.935C450.265 586.497 450.092 586.034 450.092 585.594H448.751V593.274H450.458V588.885C450.458 588.402 450.795 587.852 451.05 587.588C451.624 586.993 452.144 586.996 452.897 586.996C453.231 586.996 453.316 587.204 453.382 586.876C453.415 586.708 453.528 585.604 453.453 585.53C453.223 585.304 451.955 585.391 451.249 585.897C450.71 586.283 450.495 586.788 450.275 586.935"
              fill="white" />
            <path id="path50" fill-rule="evenodd" clip-rule="evenodd"
              d="M373.337 567.309C373.683 567.55 373.561 567.418 374.259 567.134C374.532 567.024 374.779 566.927 375.043 566.821C376.092 566.399 375.704 566.896 376.186 567.448C377.038 568.424 378.412 567.676 378.519 566.395C379.461 566.395 379.09 566.646 379.555 566.334C379.291 565.201 377.66 564.806 376.271 565.367C375.542 565.662 374.933 566.014 374.322 566.465L373.626 566.989C373.441 567.14 373.443 567.109 373.337 567.309"
              fill="#ED3237" />
          </g>
        </g>
      </g>
      <line id="divider" x1="439" y1="446" x2="464" y2="446" stroke="white" stroke-width="2" />
    </g>
  </g>
  <defs>
    <linearGradient id="paint0_linear_0_1" x1="449.431" y1="40.472" x2="450.887" y2="1360.5"
      gradientUnits="userSpaceOnUse">
      <stop stop-color="#FF0023" />
      <stop offset="0.427083" stop-color="#64131E" />
      <stop offset="0.692708" stop-color="#0E0405" />
    </linearGradient>
    <clipPath id="clip0_0_1">
      <rect width="896" height="896" fill="white" transform="translate(5 -26)" />
    </clipPath>
    <clipPath id="clip1_0_1">
      <rect width="214" height="48" fill="white" transform="translate(347 550)" />
    </clipPath>
  </defs>
</svg>